<svg xmlns="http://www.w3.org/2000/svg" viewBox="0 0 48 60" x="0px" y="0px"><title>podium winner champion sport</title><g><path d="M15.1843,44H8a3.0033,3.0033,0,0,1-3-3V23a3.0033,3.0033,0,0,1,3-3h7V43A2.966,2.966,0,0,0,15.1843,44ZM40,26H33V43a2.9635,2.9635,0,0,1-.1843,1H40a3.0033,3.0033,0,0,0,3-3V29A3.0033,3.0033,0,0,0,40,26ZM31,15V43a1,1,0,0,1-1,1H18a1,1,0,0,1-1-1V15a3.0033,3.0033,0,0,1,3-3h8A3.0033,3.0033,0,0,1,31,15ZM27,28a1,1,0,0,0-1-1H25V21a1,1,0,0,0-1.4473-.8945l-2,1a1,1,0,1,0,.8946,1.789L23,22.6182V27H22a1,1,0,0,0,0,2h4A1,1,0,0,0,27,28Z"/></g><text x="0" y="63" fill="#000000" font-size="5px" font-weight="bold" font-family="'Helvetica Neue', Helvetica, Arial-Unicode, Arial, Sans-serif"></text><text x="0" y="68" fill="#000000" font-size="5px" font-weight="bold" font-family="'Helvetica Neue', Helvetica, Arial-Unicode, Arial, Sans-serif"></text></svg>
