<svg xmlns="http://www.w3.org/2000/svg" viewBox="0 0 100 125" fill="none" x="0px" y="0px"><path d="M34.3456 30.5833L7.76226 34.4374L7.29142 34.5333C6.57867 34.7225 5.9289 35.0975 5.40847 35.6199C4.88805 36.1424 4.5156 36.7936 4.32918 37.5071C4.14276 38.2206 4.14904 38.9708 4.34737 39.6811C4.54571 40.3913 4.92899 41.0362 5.45809 41.5499L24.7164 60.2958L20.1748 86.7749L20.1206 87.2333C20.077 87.9704 20.23 88.706 20.5641 89.3645C20.8982 90.0231 21.4014 90.581 22.022 90.9812C22.6426 91.3814 23.3585 91.6095 24.0962 91.642C24.834 91.6746 25.5671 91.5105 26.2206 91.1666L49.9956 78.6666L73.7164 91.1666L74.1331 91.3583C74.8208 91.6291 75.5683 91.7122 76.2987 91.5989C77.0292 91.4856 77.7163 91.18 78.2897 90.7135C78.8631 90.247 79.3021 89.6364 79.5616 88.9442C79.8211 88.2521 79.8918 87.5034 79.7664 86.7749L75.2206 60.2958L94.4873 41.5458L94.8122 41.1916C95.2765 40.6198 95.5809 39.9351 95.6944 39.2074C95.8079 38.4797 95.7265 37.7348 95.4585 37.0488C95.1904 36.3628 94.7453 35.7601 94.1684 35.3021C93.5916 34.8441 92.9037 34.5472 92.1748 34.4416L65.5914 30.5833L53.7081 6.49992C53.3642 5.80215 52.8319 5.21457 52.1714 4.80369C51.5108 4.39281 50.7485 4.17505 49.9706 4.17505C49.1927 4.17505 48.4303 4.39281 47.7698 4.80369C47.1093 5.21457 46.5769 5.80215 46.2331 6.49992L34.3456 30.5833Z" fill="black"/><text x="0" y="115" fill="#000000" font-size="5px" font-weight="bold" font-family="'Helvetica Neue', Helvetica, Arial-Unicode, Arial, Sans-serif"></text><text x="0" y="120" fill="#000000" font-size="5px" font-weight="bold" font-family="'Helvetica Neue', Helvetica, Arial-Unicode, Arial, Sans-serif"></text></svg>
